<svg
   viewBox="0 0 402.59182 402.28544"
   xmlns="http://www.w3.org/2000/svg">
  <defs
     id="defs26">
    <style
       id="style24">.cls-1{fill:#194894;}</style>
  </defs>
  <g
     id="Layer_2"
     data-name="Layer 2"
     transform="translate(-219.63737,-96.48535)">
    <path
       class="cls-1"
       d="m 622.19,131.35 c 0.59,15.62 -5.55,29 -13.89,41.68 -17.36,26.34 -42.43,45.5 -63.78,68.13 -4.75,5 -8.44,9.27 -5.59,16.75 1.54,4 1.4,8.7 2.27,13 0.3,1.49 1.32,4 2.1,4 1.53,0.07 3.33,-1 4.65,-2.05 5.67,-4.59 10.68,-10.31 16.94,-13.8 7.78,-4.35 17.87,-1.2 24.65,5.87 6.22,6.48 8.52,17.08 4.71,24.6 a 49.35,49.35 0 0 1 -8,11.69 c -9.69,10.14 -19.71,20 -29.73,29.79 -3.76,3.69 -4.78,7.41 -3.72,12.86 3,15.18 5,30.55 7.48,45.84 1.6,10 3.16,20 4.87,30 q 3.79,22.06 7.79,44.09 c 1.86,10.31 -0.2,19.61 -7.89,26.89 -8.5,8 -19.13,7.68 -29.17,4.46 -4.65,-1.5 -9,-5.95 -12.05,-10.1 -17.35,-23.38 -34.29,-47.06 -51.34,-70.67 Q 453.36,388 434.33,361.51 c -3.08,-4.27 -5.46,-4.37 -9.43,-0.65 -12.49,11.72 -24.93,23.51 -37.62,35 -3.51,3.19 -8.2,5.1 -11.66,8.33 -1.74,1.63 -3.22,5.25 -2.64,7.38 4.63,17.05 9.94,33.91 14.68,50.93 a 53.75,53.75 0 0 1 1.94,14.71 c -0.09,11.48 -7.91,19.94 -19.33,21.2 -12.25,1.36 -22.63,-0.75 -29.78,-12.83 -7.77,-13.13 -17.14,-25.32 -25.78,-37.94 -5.44,-7.94 -6.39,-7.92 -15.15,-3.72 a 189.24,189.24 0 0 1 -23.56,9.5 c -2.64,0.85 -7.3,0.15 -8.9,-1.69 -1.83,-2.12 -2.53,-6.73 -1.55,-9.49 3.19,-9 7.24,-17.65 11.23,-26.32 1.64,-3.57 1.6,-6.25 -1.81,-8.61 -10.31,-7.14 -20.55,-14.36 -30.82,-21.53 -5,-3.49 -10.17,-6.72 -15,-10.47 -13.45,-10.58 -12.59,-35.22 2.28,-43.3 5.28,-2.88 13.15,-3.29 19.22,-2 14.19,3.07 28,7.86 42,12 4.94,1.46 9.78,3.42 14.81,4.3 2,0.35 5.51,-0.9 6.56,-2.55 12,-18.91 28.09,-34.1 43.88,-49.6 3.91,-3.84 3.87,-6.2 -0.52,-9.36 -17.94,-12.92 -36,-25.66 -53.92,-38.63 -15.22,-11 -30.29,-22.24 -45.41,-33.4 -9.33,-6.89 -19,-13.36 -27.85,-20.84 -8.85,-7.48 -10.66,-21 -6.15,-32.14 2.78,-6.87 15.55,-15.74 25.62,-14.16 12.2,1.91 24.43,3.63 36.62,5.67 12.19,2.04 24.25,4.49 36.42,6.52 18.55,3.11 37.1,6.27 55.75,8.74 2.92,0.39 7,-2 9.37,-4.29 10.58,-10 20.71,-20.53 31.08,-30.78 a 34.35,34.35 0 0 1 6.38,-5.25 c 15.08,-9 34.67,1.05 36.29,18.6 0.64,6.94 -2.42,12.58 -6.72,17.55 -2.88,3.33 -6.4,6.11 -9.5,9.28 -2.74,2.79 -2.16,5.06 1.69,5.89 6.3,1.37 12.63,3.14 19,3.39 3.07,0.12 6.92,-2.17 9.31,-4.5 16.39,-16 32.42,-32.32 48.69,-48.42 11.63,-11.52 24.54,-21.61 40,-27 15.46,-5.39 31.46,-6.72 47.08,0.07 a 12.51,12.51 0 0 1 5.34,5.2 c 4.59,8.15 5.32,12.11 5.72,25.05 z m -33.59,39.28 c -1.86,-20.11 -13.36,-33.61 -32.15,-38.47 -7.18,-1.86 -13.69,-1.17 -19.12,4.93 -5.14,5.78 -10.87,11 -16.35,16.53 q -79.16,79 -158.26,158.12 c -8.84,8.86 -18.24,17.49 -25.39,27.63 -10.89,15.46 -20.56,31.86 -29.77,48.41 -6.78,12.19 -12,25.23 -17.83,37.94 -0.45,1 -0.46,2.85 0.15,3.41 0.61,0.56 2.44,0.56 3.48,0.15 3.26,-1.26 6.46,-2.71 9.58,-4.28 13.82,-6.92 27.94,-13.32 41.31,-21 a 379.48,379.48 0 0 0 40.62,-26.45 c 9.9,-7.55 18.23,-17.2 27.11,-26.06 q 56.64,-56.52 113.18,-113.13 29.73,-29.79 59.16,-59.86 c 2,-2.08 2.88,-5.23 4.28,-7.87 z m -31.24,299.14 c -0.16,-1 -0.38,-2.67 -0.65,-4.31 -1.75,-10.35 -3.61,-20.69 -5.23,-31.06 -3.69,-23.67 -7.09,-47.38 -10.92,-71 -4.95,-30.54 -10.17,-61 -15.41,-91.54 -0.34,-2 -1.77,-3.77 -2.69,-5.65 -2,1 -4.4,1.65 -5.91,3.15 -21.86,21.71 -43.57,43.56 -65.37,65.33 -9.76,9.75 -9.86,9.74 -1.81,20.9 q 27.63,38.3 55.35,76.53 16.23,22.36 32.64,44.58 c 3,4.09 7.1,6.9 12.42,4.88 4.88,-1.87 7.47,-5.81 7.58,-11.81 z M 249.28,161.68 c -5.27,0.38 -9.66,2 -11.8,7 -2,4.78 -0.54,9.2 4.58,13 13.2,9.7 26.52,19.25 39.79,28.85 l 85,61.53 c 7.17,5.19 7.93,5.11 14.35,-1.29 q 34.09,-34 68.14,-68.11 c 1.53,-1.54 2.28,-3.87 3.4,-5.83 -2,-1.07 -4,-2.72 -6.12,-3.1 q -31.27,-5.5 -62.63,-10.61 c -24.39,-4 -48.81,-7.65 -73.2,-11.52 -20.55,-3.27 -41.1,-6.6 -61.51,-9.92 z m 125,312.61 a 5.91,5.91 0 0 0 -0.19,-1.54 c -3.21,-11.14 -6.47,-22.27 -9.68,-33.42 -1.52,-5.28 -2.83,-10.63 -4.46,-15.88 -1.63,-5.25 -4.75,-7.11 -8.43,-5.18 -7.65,4 -15.15,8.27 -22.8,12.27 -3.92,2 -4.38,4.38 -1.77,7.91 4.38,5.91 8.5,12 12.74,18 5.63,8 11.12,16 17,23.81 2.73,3.61 6.73,5.29 11.3,3.43 3.83,-1.55 6.52,-4.18 6.31,-9.4 z M 234.43,356.12 c 1,1.41 2.25,4.77 4.68,6.53 14,10.11 28.24,19.87 42.44,29.69 3,2.08 5.17,0.79 6.72,-2.12 3.45,-6.5 6.77,-13.06 10.4,-19.46 3.93,-6.95 3.15,-9.82 -4.46,-12.15 Q 271,351.53 247.68,345 c -6.63,-1.93 -13.35,3 -13.25,11.12 z M 590.28,110 c -3.8,0.84 -9.45,1.79 -14.88,3.44 -1.93,0.58 -3.34,2.88 -5,4.39 1.46,1.45 2.7,3.29 4.42,4.28 9.82,5.62 17.81,12.84 22.46,23.43 0.69,1.57 2.76,3.71 4,3.58 1.46,-0.16 3.42,-2.25 3.89,-3.87 a 104.28,104.28 0 0 0 3.67,-16.69 c 1.1,-9.98 -6.75,-18.39 -18.56,-18.56 z m -170.62,63.12 c 0.75,-0.2 3,-0.12 4.16,-1.21 6.85,-6.69 13.72,-13.4 20,-20.62 2.52,-2.91 2.5,-7.72 -1.16,-9.82 -2.53,-1.47 -7.73,-2 -9.51,-0.47 -8.85,7.78 -17.11,16.25 -25.24,24.8 -2.77,2.91 -1.48,5.53 2.45,6.21 2.7,0.47 5.47,0.67 9.3,1.11 z m 126,126.15 a 43.39,43.39 0 0 0 0.92,6 c 0.73,2.32 1.78,4.55 2.7,6.81 2.31,-1.23 5,-2 6.87,-3.76 6.8,-6.44 13.35,-13.17 19.92,-19.85 4.08,-4.15 4.61,-9.52 1.4,-12.74 -2.81,-2.81 -8.07,-2.56 -12,1.07 -5.79,5.37 -11.45,10.9 -16.87,16.65 -1.6,1.72 -2.24,4.37 -2.95,5.82 z"
       id="path28" />
    <path
       class="cls-1"
       d="m 513.9,213.89 c -1.57,2.66 -2.28,4.62 -3.61,6 -6.77,7 -13.58,14 -20.63,20.78 -4.22,4 -9.3,4.22 -12.36,1 -3.3,-3.41 -2.93,-8.55 1.25,-12.78 6.86,-6.94 13.69,-13.94 21,-20.42 1.77,-1.57 5.77,-2.34 7.86,-1.44 2.59,1.17 4.29,4.41 6.49,6.86 z"
       id="path30" />
    <path
       class="cls-1"
       d="m 437.42,289.33 c -2.12,-1.35 -5.52,-2.33 -5.9,-4 -0.71,-3.09 -0.9,-7.68 0.89,-9.73 a 296.37,296.37 0 0 1 22.15,-22.41 c 3.4,-3.15 7.66,-2.64 10.92,0.78 3.07,3.23 3.43,7.19 0.31,10.47 -7.11,7.48 -14.45,14.75 -21.91,21.9 -1.46,1.38 -3.88,1.81 -6.46,2.99 z"
       id="path32" />
  </g>
</svg>
