<svg
   viewBox="0 0 406.0039 406.29167"
   xmlns="http://www.w3.org/2000/svg">
  <defs
     id="defs26">
    <style
       id="style24">.cls-1{fill:#194894;}</style>
  </defs>
  <g
     id="Layer_4"
     data-name="Layer 4"
     transform="translate(-217.95455,-94.650008)">
    <path
       class="cls-1"
       d="m 445.3,126.89 c 0,7.83 0.05,15.66 0,23.49 0,4.68 2.09,6.75 6.81,6.69 q 15.11,-0.21 30.21,0 c 7.69,0.09 9.6,2 10,9.56 0.2,3.91 0.12,7.83 0.11,11.74 0,9.43 1,10.47 10.69,10.46 3.73,0 7.46,-0.12 11.18,0 8.26,0.23 11.37,3.37 11.59,11.72 0.1,4.29 0.06,8.58 -0.06,12.86 -0.14,4.91 2.33,7.22 7.05,7.42 1.67,0.08 3.35,0 5,0.06 8.73,0.07 11.8,2.94 11.84,11.74 0.09,18.64 0.29,37.28 -0.17,55.91 -0.17,6.63 2.67,10.45 7.87,13.45 9.34,5.39 18.71,10.72 27.93,16.28 6.47,3.9 7.59,7.89 5.46,15.12 -7,23.71 -13.79,47.5 -20.83,71.2 -5.3,17.82 -10.71,35.62 -16.39,53.33 -3.58,11.14 -1.17,15 10.43,17.32 16.55,3.32 30.47,-1.15 42.53,-12.6 2.27,-2.17 4.75,-4.61 7.59,-5.54 2.44,-0.8 6.22,-0.51 8.1,1 1.57,1.24 2,5 1.55,7.42 a 14.22,14.22 0 0 1 -4.24,7 c -13.39,12.44 -28.77,21.16 -47.56,19.95 -8.5,-0.55 -17.11,-3.37 -25.13,-6.52 -13.8,-5.41 -27.38,-11.77 -42.49,-6.44 -8.53,3 -16.57,7.43 -24.85,11.19 -13.23,6 -26.9,9.45 -41.1,4.18 -10.74,-4 -21.17,-8.83 -31.65,-13.49 -13.17,-5.86 -26.2,-4.59 -39,0.81 -6.67,2.81 -12.8,6.94 -19.52,9.58 a 56.5,56.5 0 0 1 -29,3.75 c -10.79,-1.55 -20.69,-5.41 -30.54,-10 -16.2,-7.61 -31.56,-4.33 -45.92,5.54 a 148.11,148.11 0 0 1 -12.69,8.11 c -3.52,1.93 -7.52,3.1 -10.53,-1 -3.01,-4.1 -1.48,-8 1.85,-10.93 17.65,-15.86 37.34,-25.75 62,-20.8 2,0.4 5.65,0.42 6,-0.46 a 11.66,11.66 0 0 0 0.22,-7.28 c -4.31,-15.2 -8.85,-30.33 -13.38,-45.46 -3.36,-11.23 -6.81,-22.42 -10.21,-33.64 -5,-16.36 -10,-32.72 -14.88,-49.09 -1.33,-4.42 0.64,-7.71 4.26,-10 9.91,-6.23 19.77,-12.54 29.89,-18.42 5.49,-3.19 8.37,-6.86 8.19,-13.74 -0.5,-18.44 -0.2,-36.9 -0.19,-55.36 0,-9 2.95,-11.88 12.1,-12.05 1.67,0 3.35,0 5,-0.07 4.43,-0.25 6.88,-2.42 6.79,-7.08 q -0.12,-6.15 -0.06,-12.3 c 0.1,-9.7 3,-12.55 12.84,-12.62 4.48,0 8.95,-0.07 13.43,0.05 4.9,0.13 7.25,-2.12 7.19,-7 -0.06,-5.22 -0.19,-10.45 0,-15.65 0.31,-6.82 2.54,-9 9.35,-9.06 9.13,-0.13 18.27,0 27.4,0 9.47,0 10.34,-0.86 10.34,-10.12 0,-13.61 0,-27.22 0,-40.82 0,-7.56 2,-10.64 9.46,-11.18 a 270.63,270.63 0 0 1 31.2,0 c 4.7,0.21 7,3.47 6.88,8.49 -0.21,7.82 -0.06,15.65 -0.06,23.48 z m -15.45,233 v 0 c 0,35.58 0.13,71.16 -0.12,106.74 0,5.55 1.73,8.88 6.81,10.62 a 59.13,59.13 0 0 0 6.87,2.23 c 13,2.73 24.89,-0.11 36.33,-6.75 13.52,-7.85 27.91,-13.09 44,-11.35 2.59,0.28 5.42,0.82 7.76,0.06 2.34,-0.76 5.26,-2.57 5.94,-4.6 3.56,-10.56 6.5,-21.33 9.64,-32 4.28,-14.61 8.49,-29.24 12.85,-43.83 4.58,-15.3 9.37,-30.54 13.83,-45.88 0.41,-1.4 -0.51,-3.64 -1.55,-4.89 a 20.4,20.4 0 0 0 -5.27,-4.07 C 551.7,316.91 536.4,307.76 521.17,298.5 505.78,289.13 490.48,279.63 475.09,270.26 q -18.3,-11.16 -36.75,-22.08 c -1.91,-1.13 -4.33,-1.42 -6.51,-2.1 -0.68,2.19 -1.94,4.37 -1.95,6.56 -0.07,35.77 -0.03,71.53 -0.03,107.29 z m -16.64,-4.15 c 0,-33.91 0,-67.81 -0.08,-101.71 0,-2.58 -1.2,-5.16 -1.84,-7.73 -2.61,0.95 -5.24,1.86 -7.83,2.88 a 17.68,17.68 0 0 0 -2.39,1.42 c -16.77,10 -33.59,19.87 -50.3,29.94 -25.31,15.24 -50.53,30.61 -75.81,45.89 -5.57,3.36 -6.33,5.93 -4.14,12.34 2,6 3.65,12.08 5.38,18.14 5.3,18.59 10.45,37.21 15.89,55.76 5.8,19.78 11.7,39.54 18,59.17 0.92,2.89 4.19,7.08 6.47,7.14 8,0.21 16.51,0.21 24.05,-2.17 10.67,-3.37 20.43,-9.54 31,-13.37 a 48,48 0 0 1 31.8,-0.05 c 8,2.65 9.79,1.81 9.79,-6.5 q 0,-50.54 0.01,-101.11 z m 8.34,-134.93 q 39.7,0 79.4,0 c 7.51,0 8.93,-1.47 8.82,-8.77 -0.09,-6.48 -1.35,-7.53 -9.38,-7.53 q -78.86,0 -157.69,0 c -1.68,0 -3.58,-0.3 -5,0.37 -1.64,0.8 -3.61,2.28 -4.08,3.87 -2.41,8.16 0.66,12.06 9,12.06 q 39.51,0.06 78.93,0.04 z m -73.27,15.9 v 0.12 c -10.82,0 -21.63,0.08 -32.44,0 -4.61,-0.05 -6.89,1.66 -6.83,6.56 0.16,11.74 0,23.48 0.14,35.22 0,1.88 0.68,4.9 1.81,5.33 1.65,0.62 4.31,-0.14 6,-1.16 Q 350,263 382.87,243 c 1.6,-1 2.79,-2.6 4.16,-3.92 -1.92,-0.76 -3.82,-2.16 -5.76,-2.19 -10.99,-0.25 -21.99,-0.14 -32.99,-0.14 z m 146.35,0.12 v -0.13 q -16.22,0 -32.42,0 a 11.78,11.78 0 0 0 -3.87,0.26 5.16,5.16 0 0 0 -2.68,2.35 c -0.21,0.44 0.95,1.91 1.79,2.41 8,4.77 16.06,9.33 24,14.12 14.79,8.91 29.48,18 44.29,26.85 1.77,1.06 4,1.4 6,2.08 0.65,-2.05 1.84,-4.09 1.87,-6.14 0.19,-11.74 0,-23.48 0.15,-35.21 0.06,-4.77 -2,-6.7 -6.72,-6.64 -10.79,0.22 -21.6,0.09 -32.41,0.09 z m -73.26,-64.21 c -15.81,0 -31.63,0.06 -47.44,0 -4.67,0 -7.39,1.61 -7.64,6.65 -0.35,6.86 1.91,9.49 9,9.5 q 46.6,0.06 93.2,0 c 6.68,0 8.33,-1.72 8.29,-8.15 -0.04,-6.43 -1.69,-7.93 -8.54,-8 -15.62,-0.01 -31.24,0.03 -46.87,0.04 z m -8.26,-40.46 h 0.06 c 0,6.32 -0.12,12.63 0,19 0.12,5 3.8,5.85 7.8,5.84 4,-0.01 8.63,0.15 8.78,-5.31 0.33,-12.62 0.38,-25.26 0,-37.88 -0.17,-5.91 -5.1,-5.83 -9.54,-5.89 -4.44,-0.06 -7.13,1.71 -7.15,6.46 0.03,5.93 0.05,11.88 0.05,17.82 z"
       id="path28" />
    <path
       class="cls-1"
       d="m 482.13,296.18 c 3.23,1 5.38,1.29 7.06,2.32 15.65,9.6 31.3,19.21 46.79,29.06 7.68,4.89 8.51,10.88 2.17,14.76 -2,1.21 -5.79,1.57 -7.66,0.46 -16.42,-9.78 -32.6,-20 -48.81,-30.09 -1.56,-1 -3.49,-2.05 -4.18,-3.56 -1.12,-2.48 -2.54,-5.85 -1.66,-7.93 0.98,-2.31 4.38,-3.6 6.29,-5.02 z"
       id="path30" />
    <path
       class="cls-1"
       d="m 313,344.87 c -2.15,-2.31 -5.21,-4.29 -6.08,-7 -0.68,-2.12 0.53,-6.23 2.31,-7.52 8.55,-6.21 17.54,-11.82 26.43,-17.55 6.71,-4.32 13.49,-8.53 20.26,-12.75 a 31.18,31.18 0 0 1 4.87,-2.67 c 5.32,-2.12 9.59,-0.94 11.47,3.34 2.07,4.73 -0.81,8 -4.2,10.4 -6.54,4.58 -13.38,8.72 -20.14,13 q -14.13,8.86 -28.36,17.61 c -1.7,1.02 -3.56,1.73 -6.56,3.14 z"
       id="path32" />
  </g>
</svg>
