<?xml version="1.0" encoding="UTF-8" standalone="no"?>
<svg
   viewBox="0 0 415.54473 439.5514"
   xmlns="http://www.w3.org/2000/svg">
  <defs
     id="defs188">
    <style
       id="style186">.cls-1{fill:#194894;}</style>
  </defs>
  <g
     id="Layer_5"
     data-name="Layer 5"
     transform="translate(-213.20644,-77.862855)">
    <path
       class="cls-1"
       d="m 213.47,296.13 c 0,-37 0.38,-74.08 -0.26,-111.11 -0.16,-9.71 5.09,-14 11.95,-17.53 12.2,-6.28 24.69,-12 37.09,-17.86 13.11,-6.24 26.27,-12.38 39.37,-18.65 12.37,-5.91 24.6,-12.14 37.05,-17.87 Q 375.19,96.28 412,79.91 c 9.27,-4.11 18.51,-1.4 27,2.58 18.46,8.62 36.62,17.89 55,26.76 21.06,10.19 42.22,20.18 63.29,30.34 13.8,6.66 27.5,13.52 41.3,20.17 5.08,2.45 10.36,4.46 15.47,6.85 9,4.23 14.58,10.23 14.53,21.38 -0.31,73.47 -0.45,147 0.16,220.41 0.09,11.32 -5,16.55 -13.7,20.75 -27.24,13.2 -54.43,26.51 -81.75,39.54 -23.3,11.12 -46.78,21.87 -70.14,32.86 -8.39,3.94 -16.48,8.58 -25,12.05 -12.25,4.95 -24.62,5.48 -36.9,-0.78 -11.5,-5.87 -23.29,-11.17 -34.9,-16.81 -16.51,-8 -32.92,-16.18 -49.47,-24.09 -12,-5.75 -24.2,-11.11 -36.26,-16.76 -19,-8.92 -38,-17.76 -56.89,-27 -6.83,-3.35 -10.21,-9.34 -10.19,-17.27 q 0.02,-57.37 -0.08,-114.76 z m 218,89.65 q 0,48.57 0,97.14 c 0,6.92 1.8,7.75 8,4.75 19.06,-9.25 38.22,-18.3 57.35,-27.4 13.31,-6.33 26.65,-12.59 40,-18.92 q 18.3,-8.7 36.57,-17.47 c 8.73,-4.19 17.43,-8.46 26.19,-12.6 4.82,-2.28 6.4,-5.94 6.38,-11.23 q -0.18,-95.62 -0.07,-191.25 c 0,-8.15 -2.76,-9.68 -10,-6.12 -16.48,8.09 -33,16.13 -49.59,23.93 -8.71,4.09 -9.84,5.47 -9.82,15.15 0,17.81 0.12,35.62 0,53.43 -0.08,8.75 -5.49,13.95 -13.1,13.13 -5.92,-0.64 -10,-5.83 -10.06,-13.09 -0.06,-14.37 0.06,-28.74 0,-43.11 0,-7.81 -1.47,-8.71 -8.49,-5.71 -2.23,1 -4.51,1.8 -6.69,2.85 -19.27,9.32 -38.37,19 -57.85,27.83 -6.39,2.9 -8.81,6.61 -8.77,13.37 0.06,31.77 -0.05,63.54 -0.06,95.32 z m -22.38,0.18 v 0 c 0,-32 -0.06,-63.95 0.05,-95.92 0,-6.1 -1.78,-10.11 -7.93,-12.68 -12.45,-5.21 -24.65,-11.06 -36.8,-17 -11.6,-5.64 -22.88,-11.95 -34.51,-17.5 -27.48,-13.13 -55.13,-25.9 -82.63,-39 -9,-4.27 -11.24,-3.07 -11.24,6.66 q 0,93.79 0,187.58 c 0,10.43 0.81,11.48 10.56,15.68 9.08,3.91 18.07,8.05 27,12.35 22.87,11.06 45.62,22.37 68.51,33.4 19.61,9.46 39.36,18.64 59,28 6.06,2.89 8,1.74 8,-5.1 q 0,-48.2 -0.02,-96.43 z M 331.65,141.63 c -1.57,0.67 -3,1.24 -4.48,1.94 -9.07,4.4 -18.09,8.9 -27.2,13.24 -14,6.68 -28.11,13.24 -42.16,19.88 -3.92,1.85 -4,4.31 -0.73,6.87 a 22,22 0 0 0 4.3,2.18 c 12.77,6 25.6,11.9 38.31,18 23.07,11.09 46.05,22.37 69.11,33.48 13.43,6.47 26.88,12.92 40.47,19 4.23,1.9 9.73,4.8 13.34,3.53 11.58,-4.05 22.59,-9.74 33.74,-15 q 18.33,-8.62 36.47,-17.65 c 1.76,-0.87 4.35,-2.66 4.3,-3.93 -0.07,-1.69 -2,-4 -3.76,-4.8 -11.59,-5.64 -23.34,-11 -35,-16.4 -15.71,-7.32 -31.48,-14.51 -47.1,-22 -22.7,-10.92 -45.27,-22.1 -67.91,-33.12 -3.82,-1.79 -7.7,-3.42 -11.7,-5.22 z M 420,99.71 c -5.93,2.53 -12.47,5 -18.76,8.06 -11.46,5.51 -22.79,11.28 -34.12,17 a 39.09,39.09 0 0 0 -5.09,3.71 c 1.57,1.71 3,3.52 4.73,5.08 a 12.08,12.08 0 0 0 3.22,1.65 c 15.88,7.45 31.81,14.81 47.65,22.34 20.57,9.77 41.08,19.68 61.61,29.53 12.91,6.19 25.84,12.33 38.72,18.57 6,2.9 11.51,4.61 18.29,1 11.16,-6 22.93,-10.83 34.41,-16.24 A 111.89,111.89 0 0 0 583,184.07 c 3.88,-2.46 3.72,-5.45 -0.05,-7.33 -13.18,-6.56 -26.32,-13.18 -39.61,-19.49 -20,-9.5 -40.22,-18.58 -60.2,-28.15 -18.72,-9 -37.23,-18.39 -55.9,-27.5 -1.95,-0.95 -4.24,-1.13 -7.24,-1.89 z"
       id="path190" />
    <path
       class="cls-1"
       d="m 253.66,323.75 c 0,-17.58 -0.24,-35.18 0.2,-52.76 a 18.4,18.4 0 0 1 4.38,-10.63 c 4.46,-5.15 12.93,-3.11 15.21,3.39 a 31.27,31.27 0 0 1 1.45,10.12 c 0.1,33.36 0.06,66.72 0.05,100.08 a 39.09,39.09 0 0 1 -0.19,4.84 c -0.78,6.25 -5.26,10.54 -10.66,10.33 -5.4,-0.21 -10.34,-5.36 -10.4,-11.39 -0.12,-14.55 0,-29.11 0,-43.66 z"
       id="path192" />
  </g>
</svg>
