<?xml version="1.0" encoding="UTF-8" standalone="no"?>
<svg
   viewBox="0 0 367.67165 444.00626"
   xmlns="http://www.w3.org/2000/svg">
  <defs
     id="defs333">
    <style
       id="style331">.cls-1{fill:#194894;}</style>
  </defs>
  <g
     id="Layer_7"
     data-name="Layer 7"
     transform="translate(-237.13619,-75.632364)">
    <path
       class="cls-1"
       d="m 604.54,269.65 c 0,37.6 0.74,75.23 -0.24,112.81 -0.79,30.49 -15.91,53.13 -42.49,68.3 -15.76,9 -31.15,18.63 -46.7,28 -18,10.83 -35.55,22.48 -54.07,32.3 -19.13,10.13 -40.04,9.64 -61.04,6.84 -12.25,-1.64 -21.79,-8.49 -31.87,-14.67 -14.92,-9.15 -30.17,-17.77 -45.23,-26.69 -17.7,-10.5 -36.14,-20 -52.84,-31.9 -21.52,-15.36 -32.47,-37.62 -32.7,-64.13 -0.42,-50.27 -0.12,-100.55 -0.12,-150.83 q 0,-39.54 0,-79.09 c 0,-16.69 8.87,-27.46 24.94,-31.87 16.07,-4.41 31.61,-9.55 47.45,-14.2 13.69,-4 27.47,-7.76 41.19,-11.7 14.28,-4.09 28.6,-8 42.78,-12.47 19.7,-6.13 38.8,-6.68 58.7,0.69 19.45,7.19 39.85,11.78 59.79,17.65 18.77,5.53 37.48,11.24 56.21,16.86 3.52,1 7.06,2 10.58,3.08 16.75,4.94 22.15,10.43 25.35,29.63 0.66,4 0.33,8.16 0.33,12.25 q -0.01,54.57 -0.02,109.14 z M 579,268.78 v 0 q 0,-56.68 0,-113.38 c 0,-8.84 -0.8,-9.31 -9,-11.67 -14.1,-4 -28,-8.67 -42.06,-12.91 -14.23,-4.29 -28.52,-8.38 -42.76,-12.62 -15,-4.48 -29.95,-9.34 -45.08,-13.46 -9.15,-2.49 -17.8,-7 -28.3,-2.71 -11.41,4.71 -23.78,7.11 -35.7,10.61 -20.73,6.08 -41.43,12.28 -62.15,18.36 -15.05,4.42 -30.09,8.87 -45.22,13 -4.29,1.18 -6.24,3.47 -6.25,7.73 0,7.15 0,14.3 0,21.45 0.09,69.86 0,139.73 0.47,209.59 a 46.14,46.14 0 0 0 19.42,38 c 12.18,8.82 25.35,16.29 38.25,24.08 22.16,13.37 44.56,26.34 66.63,39.83 13.53,8.32 27.63,15.07 43.75,10.32 9.21,-2.73 17.93,-7.66 26.3,-12.58 31.63,-18.58 62.94,-37.68 94.52,-56.35 18.68,-11 27.1,-27.58 27.15,-48.78 C 579,341.1 579,304.94 579,268.78 Z"
       id="path335" />
    <path
       class="cls-1"
       d="m 420.17,373 c -8.39,0 -16.77,-0.19 -25.15,0 -19.18,0.51 -32.87,-9.94 -39.33,-27.09 a 25,25 0 0 1 -1.07,-8.45 c -0.09,-13.08 0.1,-26.16 -0.11,-39.23 0,-2.39 -1.45,-4.75 -2.22,-7.12 -2,1.15 -4.29,2 -5.91,3.52 -6.95,6.59 -12.65,8.43 -17.93,5.38 -8.73,-5 -9.48,-16.28 -1.4,-23.25 q 32.44,-28 65,-55.87 c 6.82,-5.84 13.67,-11.64 20.69,-17.24 5.86,-4.68 11.35,-4.55 17.15,0.46 20.53,17.76 40.95,35.65 61.46,53.44 q 11.57,10 23.37,19.75 c 6.39,5.25 7.48,13.63 2.36,20.17 -4.52,5.78 -11.69,6 -18.37,0.52 -1.42,-1.17 -2.53,-2.73 -4,-3.76 a 51.32,51.32 0 0 0 -5.59,-3 c -0.79,2.16 -2.14,4.29 -2.26,6.49 -0.29,5.5 0,11 0,16.55 q 0,9.49 0,19 c -0.12,23.41 -16.23,39.5 -39.73,39.64 -8.98,0.09 -17.97,0.09 -26.96,0.09 z m 41.2,-70.06 h 0.05 c 0,-10 0.31,-20 -0.16,-30 -0.16,-3.38 -1.33,-7.68 -3.65,-9.83 -10.44,-9.7 -21.45,-18.79 -32.27,-28.08 -3.54,-3 -6.88,-2.73 -10.36,0.33 -10.4,9.17 -21.11,18 -31.2,27.49 -2.3,2.17 -3.59,6.46 -3.64,9.81 -0.33,19.38 -0.2,38.77 -0.12,58.15 0,10.36 5.37,16 15.73,16.11 q 25.1,0.3 50.21,0 c 10,-0.12 15.25,-5.67 15.39,-15.83 0.12,-9.4 0.02,-18.79 0.02,-28.18 z"
       id="path337" />
  </g>
</svg>
