<svg
   viewBox="0 0 439.40691 364.82271"
   xmlns="http://www.w3.org/2000/svg">
  <defs
     id="defs280">
    <style
       id="style278">.cls-1{fill:#194894;}</style>
  </defs>
  <g
     id="Layer_6"
     data-name="Layer 6"
     transform="translate(-201.23487,-115.18755)">
    <path
       class="cls-1"
       d="M 421,259.44 H 300.81 c -8.73,0 -9.45,0.69 -9.45,9.36 0,65.26 -0.18,130.51 0.21,195.76 0.07,10.62 -4.61,14.58 -15.35,15 -14.66,0.63 -29.39,0.57 -44.06,0 -13.52,-0.49 -15,-6.4 -15,-15.29 0.21,-72.09 0.13,-144.19 0.2,-216.29 0,-4.1 -0.94,-7 -5.74,-6.79 -5,0.19 -9,-1.33 -10.22,-6.72 -1,-4.31 2.7,-10.81 6.83,-12.94 q 32.84,-16.92 65.65,-33.91 32.58,-16.89 65.11,-33.9 c 19.91,-10.44 39.61,-21.28 59.66,-31.42 10,-5 20.51,-9.88 32.08,-5.26 6.78,2.71 13.23,6.27 19.73,9.63 q 27,14 54,28.07 c 14.59,7.65 29.09,15.49 43.7,23.1 9,4.68 18.21,9 27.23,13.64 12,6.17 23.85,12.53 35.78,18.78 7.51,3.93 15.09,7.74 22.57,11.74 5.76,3.07 7.92,7.09 6.46,12.1 -1.29,4.43 -4.11,7 -9.07,7.11 -6.29,0.13 -7.25,1.29 -7.25,7.39 q 0,107.64 0.06,215.28 c 0,11.81 -2.86,15 -14.66,15.09 -14.52,0.16 -29,0.05 -43.55,0 a 40.48,40.48 0 0 1 -5.49,-0.43 c -8.61,-1.21 -10.42,-3.3 -10.42,-12.06 q 0,-98.13 0,-196.26 c 0,-1.67 -0.05,-3.34 0,-5 0.11,-4.21 -1.86,-6 -6.11,-5.9 -11.35,0.15 -22.71,0.07 -34.06,0.08 H 421 Z M 420.77,241 q 66.38,0 132.75,0 c 11.56,0 14.56,3.11 14.56,14.61 q 0,96.14 0,192.29 c 0,2.17 -0.08,4.34 0,6.51 0.2,5.7 1.94,7.49 7.59,7.56 6.68,0.08 13.36,0 20,0 8.37,0 9.2,-0.74 9.2,-9 q 0,-76.36 0,-152.72 c 0,-22 0.2,-44.07 -0.1,-66.1 0,-2.84 -1.82,-6.67 -4.06,-8.28 -5.1,-3.65 -10.94,-6.28 -16.56,-9.19 -10,-5.19 -20.18,-10.24 -30.24,-15.42 -9.47,-4.88 -18.89,-9.87 -28.35,-14.77 -9.46,-4.9 -19.26,-9.85 -28.83,-14.89 -8,-4.18 -15.76,-8.6 -23.71,-12.78 -15.31,-8.06 -30.71,-16 -46,-24.08 a 11.49,11.49 0 0 0 -11.44,-0.17 c -14.73,7.74 -29.41,15.59 -44.18,23.25 -19.94,10.35 -40,20.52 -59.92,30.85 -22.77,11.79 -45.37,23.92 -68.34,35.31 -5.53,2.75 -6.9,6 -6.89,11.62 q 0.19,106.41 0.1,212.82 c 0,2.67 -0.06,5.34 0.06,8 0.18,3.78 2,5.72 6.06,5.64 7,-0.16 14,-0.08 21,-0.07 8.27,0 9.67,-1.36 9.67,-9.54 q 0,-97.14 0,-194.29 c 0,-15.16 2,-17.18 17.39,-17.18 z"
       id="path282" />
    <path
       class="cls-1"
       d="m 421.56,479.74 c -30.73,0 -61.45,0.06 -92.18,-0.07 A 45.3,45.3 0 0 1 317.57,478 c -6,-1.68 -7.79,-4.29 -7.82,-10.58 -0.08,-16.2 0,-32.39 0,-48.58 q 0,-26.79 0,-53.59 c 0,-10.7 3.45,-14.11 14.06,-14.11 h 101.7 c 9.94,0 12.53,2.34 13.18,12 0.36,5.33 2.1,6.84 8.27,6.85 q 33.56,0 67.13,0 c 2.17,0 4.34,-0.05 6.51,0.09 7.32,0.46 10.19,3.19 10.81,10.53 0.26,3.15 0.12,6.34 0.12,9.51 q 0,37.06 0,74.12 c 0,11.39 -3.61,15.28 -15.26,15.33 -31.56,0.14 -63.12,0.05 -94.68,0.05 z M 374.24,462 c 13.19,0 26.38,-0.14 39.57,0.08 4.69,0.07 6.86,-1.68 6.86,-6.33 q 0,-40.06 0,-80.13 c 0,-3.87 -1.76,-5.82 -5.81,-5.77 -8.35,0.11 -16.7,0.11 -25.05,0.07 -4.61,0 -6.68,2.09 -6.55,6.75 0.17,6.5 0.16,13 0.07,19.52 -0.09,6.18 -3.07,9.51 -8.41,9.72 -5.84,0.24 -9,-2.75 -9.27,-9.26 -0.24,-6.33 -0.06,-12.68 -0.09,-19 0,-5.91 -1.5,-7.59 -7.28,-7.68 -8,-0.12 -16,0 -24,-0.08 -4.32,-0.05 -6,2.13 -6,6.19 0,26.37 0,52.75 0.06,79.12 0,5.68 1.45,6.83 7.34,6.83 z m 138.68,-37.24 v 0 q 0,-15 0,-30 c 0,-5.76 -0.83,-6.64 -6.68,-6.7 q -7.51,-0.09 -15,0 c -4.25,0.07 -6.22,1.89 -6,6.56 a 60,60 0 0 1 -1.09,14.79 c -0.87,4.13 -4.33,6.36 -8.71,5.93 a 9.3,9.3 0 0 1 -8.59,-8.87 c -0.21,-4.5 -0.1,-9 -0.11,-13.52 0,-3.27 -1.55,-4.94 -4.89,-4.92 -5.84,0 -11.69,0 -17.53,0 -4.19,0 -5.76,2.18 -5.73,6.37 0.14,19.53 0.07,39.06 0.09,58.59 0,7.53 1.47,9 9.18,9 q 28.8,0 57.6,0 c 6.13,0 7.44,-1.13 7.48,-7.2 0.06,-10 -0.02,-20.02 -0.02,-30.03 z"
       id="path284" />
  </g>
</svg>
