<svg
   viewBox="0 0 515.97173 464.04996"
   xmlns="http://www.w3.org/2000/svg">
  <defs
     id="defs237">
    <style
       id="style235">.cls-1{fill:#194894;}</style>
  </defs>
  <path
     class="cls-1"
     d="m 214.90503,464.05 c -16,-1.23 -30,-4.37 -40.91,-17.18 -14.94,-17.47 -17.5,-44.71 -3.85,-63.13 5.85,-7.89 8.18,-14.36 4.9,-24.59 -8.08,-25.21 -14.29,-51 -21.12,-76.62 -6,-22.55 -11.84,-45.15 -17.75,-67.73 -3.64,-14 -7,-28 -11.07,-41.79 a 29.31,29.31 0 0 0 -6.88,-11.24 c -9,-9.6 -18.619996,-18.66 -27.779996,-28.13 -3.26,-3.37 -6.66,-4.75 -10.71,-2.21 -9.41,5.87 -17.53,2.26 -24.24,-4.18 q -24.84,-23.86 -48.69,-48.69 c -10.22,-10.66 -8.56,-31.37 2.51,-41.82 10.21,-9.63 27.75,-8.89 38.7,1.92 q 23.81,23.53 47.32,47.37 c 6.529996,6.59 10.099996,13.81 6.129996,23.57 -1,2.36 1,7 3.08,9.3 8,8.76 16.15,17.6 25.23,25.23 10.16,8.53 14,19.66 17.11,31.79 4.63,18.28 10,36.39 14.84,54.61 4.12,15.35 8,30.77 12.06,46.13 4.37,16.39 8.91,32.74 13.33,49.12 2.6,9.63 5.28,19.25 7.58,28.95 1.22,5.13 3.06,8.2 9.12,6.44 8.33,-2.43 9.86,-4.35 8.08,-11.13 -5.89,-22.36 -11.62,-44.75 -17.63,-67.08 -6.11,-22.73 -12.51,-45.39 -18.72,-68.1 -1.74,-6.34 -3.94,-12.67 -4.67,-19.14 -1.39,-12.35 3.84,-23 18,-27.9 7.9,-2.71 8.67,-3.18 6.58,-11.37 -4.55,-17.85 -9.66,-35.56 -14.47,-53.35 -3.93,-14.55 -8.23,-29 -11.47,-43.7 -3.67,-16.67 6.89,-31.94 23.24,-36.17 23.2,-6 46.15,-13 69.43,-18.63 a 148.42,148.42 0 0 1 34.52,-4.6 c 17.29,0 25.12,7 29.63,23.46 7.38,27 14.56,54.08 21.77,81.14 1.14,4.29 1.77,8.73 3,13 1.43,5 5,7.09 9.82,5 13.94,-6.2 30.77,5.07 34.49,20.23 5.81,23.69 12.06,47.26 18.31,70.83 7,26.25 14.22,52.42 21.21,78.66 1.41,5.33 4.48,6.73 9.49,5.38 q 21.81,-5.85 43.66,-11.59 c 10.39,-2.75 18.73,0.74 21.81,11 3.08,10.26 4.63,20.69 6,31.18 0.84,6.52 -5.33,12.15 -13.1,14.2 -25.23,6.63 -50.4,13.52 -75.63,20.13 -22.78,6 -45.62,11.67 -68.42,17.56 -16,4.14 -32,8.4 -48,12.59 -11.07,2.9 -22.1,5.95 -33.23,8.62 -8.17,2 -10.74,4.47 -11.12,12.84 -0.86,19.16 -10,34 -25.9,43.51 -7.24,4.24 -16.99,4.31 -25.59,6.31 z m 58.13,-200.26 c -1.29,-4.62 2.56,-7.77 6.92,-9 6.93,-1.31 8.61,0.47 11.35,4.16 a 25.92,25.92 0 0 1 3.83,8.57 c 5.27,19.45 10.38,38.94 15.48,58.43 1.41,5.38 4.67,6.61 9.63,4.81 a 82.8,82.8 0 0 1 10.31,-3.37 c 8,-1.73 8.51,-2.8 6.26,-10.78 q -9.57,-33.94 -18.8,-68 c -7.33,-27.24 -14.44,-54.54 -21.57,-81.83 -1.05,-4 -3.33,-5.95 -7.41,-4.83 -5.53,1.52 -11.19,2.86 -16.33,5.27 -1.78,0.84 -3.12,4.69 -3,7.07 0.19,3.5 2.17,6.86 2.86,10.38 1.26,6.37 -2.36,12.57 -7.56,13.58 -5,1 -10.12,-3 -12,-9.15 -1.17,-3.84 -2.07,-8 -4.2,-11.24 -1.22,-1.89 -5,-3.74 -7,-3.25 -13.81,3.27 -27.51,7 -41.18,10.9 -10,2.83 -10.68,4.66 -8,14.52 7.68,27.79 15.15,55.64 22.66,83.47 q 8.37,31 16.61,62 c 1.47,5.57 4.85,7 10.08,5.53 4.29,-1.19 8.66,-2.1 12.95,-3.27 q 15.35,-4.18 30.65,-8.51 c 4.64,-1.32 6.55,-4.24 5.18,-9.17 q -7,-25.11 -13.73,-50.26 c -1.23,-4.67 -2.32,-9.43 -3.99,-16.03 z m 142.88,37.23 c -1.86,-8.15 -3.19,-15 -5,-21.77 -4.41,-16.13 -9.23,-32.15 -13.58,-48.3 -7.45,-27.65 -14.62,-55.37 -22,-83 -1.65,-6.19 -5.51,-7.83 -11.74,-5.82 -4.63,1.49 -9.34,2.77 -14,4 -8.41,2.21 -16.91,4.1 -25.26,6.51 -7.59,2.2 -9.18,4.9 -7.35,12.07 4,15.81 8.24,31.59 12.45,47.36 4.86,18.22 9.8,36.41 14.7,54.62 4.09,15.16 8.14,30.33 12.25,45.48 1.1,4.05 3.32,7.49 8,6.3 q 23.44,-5.94 46.66,-12.66 c 2.1,-0.64 3.61,-3.48 4.9,-4.79 z m -152.14,83.79 c 1.34,-0.41 3.54,-1.15 5.78,-1.78 9.58,-2.71 19.13,-5.54 28.77,-8.05 16.22,-4.21 32.54,-8 48.74,-12.33 23.57,-6.24 47,-12.91 70.6,-19.11 23,-6 46.06,-11.66 69.07,-17.57 a 14.59,14.59 0 0 0 5.65,-2.78 c 5.2,-4.35 1.49,-9 -0.14,-13.33 -1.47,-3.89 -4.7,-3.16 -8.08,-2.21 q -24.18,6.8 -48.47,13.19 c -24.2,6.4 -48.44,12.65 -72.66,19 q -25.85,6.76 -51.68,13.58 c -19.49,5.14 -39,10.28 -58.42,15.6 -1.47,0.41 -3.4,2.2 -3.58,3.55 -0.42,3.04 10.09,12.19 14.42,12.24 z m -53.48,-250.66 c 2.56,8.42 4.5,15.59 7.07,22.52 0.44,1.19 3.62,2.17 5.34,1.92 a 134.14,134.14 0 0 0 14.89,-3.28 q 28.9,-7.56 57.78,-15.29 c 10.84,-2.92 21.62,-6.11 32.43,-9.16 4.38,-1.24 5.66,-4 4.33,-8.28 -1.58,-5.05 -2.64,-10.33 -4.82,-15.11 a 9.59,9.59 0 0 0 -6.35,-4.61 c -3,-0.47 -6.28,0.61 -9.35,1.43 q -47.91,12.72 -95.77,25.69 c -2.16,0.59 -3.81,2.85 -5.55,4.17 z m -21.95,-82.48 c 1.65,6 2.8,10.5 4.12,14.94 1.45,4.87 4.52,6.92 9.68,5.41 q 9.45,-2.76 19,-5.27 41.19,-10.85 82.4,-21.6 c 5,-1.29 6.64,-4.09 4.69,-9 a 24.8,24.8 0 0 1 -1.07,-4.32 c -2.76,-13.56 -6.92,-16.27 -20.36,-13.16 -1.44,0.34 -2.85,0.82 -4.29,1.21 q -35.61,9.58 -71.21,19.2 c -5.49,1.49 -11.18,2.68 -16.24,5.13 -2.89,1.41 -4.66,5.06 -6.72,7.46 z m 25.69,328.78 c -17.3,-0.37 -33.15,14.57 -33,32 0.15,16.23 14.21,31.75 31.54,32.32 20,0.65 33.25,-15.77 33.68,-31.8 0.44,-17.58 -14.11,-32.12 -32.22,-32.52 z m -3.61,-270.16 c 4,-1 8.61,-1.93 13.13,-3.11 q 28.28,-7.42 56.53,-15 c 11.67,-3.15 23.28,-6.52 34.92,-9.78 4.07,-1.14 5.64,-3.44 3.8,-7.6 a 24.11,24.11 0 0 1 -1.43,-4.87 c -1,-4.82 -3.74,-6.22 -8.37,-4.91 -6.32,1.78 -12.7,3.36 -19.05,5 q -41.81,11 -83.6,21.95 c -3.68,1 -6.29,2.45 -5.61,6.93 0.99,6.6 4.91,11.57 9.68,11.39 z M 18.195034,58.89 c 1.61,2.91 2.32,5.26 3.84,6.8 14.44,14.66 29.06,29.14 43.51,43.77 4,4.08 7.07,2.36 10.15,-1 3.08,-3.36 7.24,-6.33 2.43,-11.14 -14.84,-14.86 -29.64,-29.77 -44.82,-44.26 -1.94,-1.85 -6.59,-2.58 -9.11,-1.6 -2.52,0.98 -3.99,4.76 -6,7.43 z"
     id="path239" />
</svg>
