<svg
   viewBox="0 0 494.289 419.19101"
   xmlns="http://www.w3.org/2000/svg">
<g
   id="XMLID_9_"
   style="fill:#194894;fill-opacity:1"
   transform="translate(0,-37.549)">
	<path
   id="XMLID_15_"
   d="M 419.215,247.14 C 419.215,131.569 325.178,37.549 209.607,37.549 94.037,37.549 0,131.569 0,247.14 c 0,115.571 94.037,209.6 209.606,209.6 14.146,0 25.62,-11.467 25.62,-25.62 0,-14.152 -11.475,-25.619 -25.62,-25.619 -87.333,0 -158.367,-71.036 -158.367,-158.361 0,-87.316 71.034,-158.352 158.367,-158.352 87.333,0 158.37,71.036 158.37,158.352 0,14.153 11.477,25.62 25.619,25.62 14.146,0 25.62,-11.467 25.62,-25.62 z"
   style="fill:#194894;fill-opacity:1" />
	<path
   id="XMLID_14_"
   d="m 349.547,407.344 h -40.766 v -0.441 l 13.395,-11.184 c 21.017,-18.764 38.662,-38.203 38.662,-62.555 0,-26.362 -18.113,-45.586 -50.955,-45.586 -14.462,0 -27.47,3.629 -37.695,8.832 -5.82,2.961 -8.438,9.833 -6.037,15.912 l 0.334,0.826 c 1.251,3.203 3.82,5.73 7.021,6.972 3.219,1.251 6.806,1.101 9.89,-0.417 5.806,-2.827 12.427,-4.861 19.565,-4.861 16.746,0 23.9,9.374 23.9,21.224 -0.432,16.979 -15.861,33.292 -47.586,61.664 l -16.262,14.719 c -1.584,1.443 -2.501,3.494 -2.501,5.655 v 9.54 c 0,4.211 3.419,7.631 7.639,7.631 h 81.396 c 7.707,0 13.959,-6.255 13.959,-13.961 0,-7.715 -6.252,-13.97 -13.959,-13.97 z"
   style="fill:#194894;fill-opacity:1" />
	<path
   id="XMLID_11_"
   d="m 481.563,375.17 h -4.704 v -77.501 c 0,-4.212 -3.42,-7.63 -7.639,-7.63 h -29.674 c -2.635,0 -5.088,1.359 -6.471,3.603 l -51.59,83.03 c -0.751,1.209 -1.149,2.602 -1.149,4.027 v 12.31 c 0,4.211 3.419,7.631 7.639,7.631 h 56.71 v 18.556 c 0,8.881 7.204,16.078 16.079,16.078 8.89,0 16.095,-7.206 16.095,-16.096 V 400.64 h 4.686 c 7.04,0 12.744,-5.705 12.744,-12.735 0,-7.031 -5.704,-12.735 -12.726,-12.735 z m -36.878,-32.165 v 32.165 h -32.627 v -0.442 l 19.449,-31.724 c 4.904,-9.165 8.707,-17.664 13.41,-27.037 h 0.885 c -0.667,9.374 -1.117,18.323 -1.117,27.038 z"
   style="fill:#194894;fill-opacity:1" />
	<path
   id="XMLID_10_"
   d="m 209.607,115.127 c -10.218,0 -18.5,8.283 -18.5,18.5 v 102.114 c 0,16.769 13.643,30.411 30.411,30.411 h 74.206 c 10.218,0 18.5,-8.283 18.5,-18.5 0,-10.217 -8.282,-18.5 -18.5,-18.5 h -67.617 v -95.525 c 0,-10.217 -8.283,-18.5 -18.5,-18.5 z"
   style="fill:#194894;fill-opacity:1" />
</g>
<g
   id="g54"
   transform="translate(0,-37.549)">
</g>
<g
   id="g56"
   transform="translate(0,-37.549)">
</g>
<g
   id="g58"
   transform="translate(0,-37.549)">
</g>
<g
   id="g60"
   transform="translate(0,-37.549)">
</g>
<g
   id="g62"
   transform="translate(0,-37.549)">
</g>
<g
   id="g64"
   transform="translate(0,-37.549)">
</g>
<g
   id="g66"
   transform="translate(0,-37.549)">
</g>
<g
   id="g68"
   transform="translate(0,-37.549)">
</g>
<g
   id="g70"
   transform="translate(0,-37.549)">
</g>
<g
   id="g72"
   transform="translate(0,-37.549)">
</g>
<g
   id="g74"
   transform="translate(0,-37.549)">
</g>
<g
   id="g76"
   transform="translate(0,-37.549)">
</g>
<g
   id="g78"
   transform="translate(0,-37.549)">
</g>
<g
   id="g80"
   transform="translate(0,-37.549)">
</g>
<g
   id="g82"
   transform="translate(0,-37.549)">
</g>
</svg>
