<svg
   viewBox="0 0 486.50051 345.39999"
   xmlns="http://www.w3.org/2000/svg">
<g
   id="g5720"
   style="fill:#194894;fill-opacity:1"
   transform="translate(0,-70.55)">
	<g
   id="g5718"
   style="fill:#194894;fill-opacity:1">
		<path
   d="m 301.1,115.45 c -39.3,0 -71.2,31.9 -71.2,71.2 0,39.3 31.9,71.2 71.2,71.2 39.3,0 71.2,-31.9 71.2,-71.2 0.1,-39.3 -31.8,-71.2 -71.2,-71.2 z m 20.5,99.4 c -3.1,3.8 -7.2,6.3 -11.9,7.6 -2.1,0.6 -3,1.6 -2.9,3.8 0.1,2.1 0,4.2 0,6.3 0,1.9 -1,2.9 -2.8,2.9 -2.3,0.1 -4.5,0.1 -6.8,0 -2,0 -2.9,-1.2 -2.9,-3.1 0,-1.5 0,-3.1 0,-4.6 0,-3.4 -0.1,-3.5 -3.4,-4 -4.2,-0.7 -8.3,-1.6 -12.1,-3.5 -3,-1.5 -3.3,-2.2 -2.4,-5.4 0.6,-2.3 1.3,-4.7 2,-7 0.8,-2.7 1.6,-3 4,-1.7 4.2,2.2 8.7,3.4 13.4,4 3,0.4 6,0.1 8.8,-1.2 5.2,-2.3 6.1,-8.4 1.6,-12 -1.5,-1.2 -3.2,-2.2 -5,-2.9 -4.6,-2 -9.4,-3.6 -13.7,-6.2 -7,-4.2 -11.5,-10 -11,-18.6 0.6,-9.7 6.1,-15.7 14.9,-18.9 3.7,-1.3 3.7,-1.3 3.7,-5.1 0,-1.3 0,-2.6 0,-3.9 0.1,-2.9 0.6,-3.4 3.4,-3.5 0.9,0 1.8,0 2.7,0 6.1,0 6.1,0 6.1,6.1 0,4.3 0,4.3 4.3,5 3.3,0.5 6.5,1.5 9.5,2.8 1.7,0.7 2.3,1.9 1.8,3.7 -0.8,2.6 -1.5,5.3 -2.3,7.9 -0.8,2.5 -1.6,2.8 -4,1.7 -4.8,-2.3 -9.8,-3.3 -15.1,-3 -1.4,0.1 -2.7,0.3 -4,0.8 -4.6,2 -5.3,7 -1.4,10.1 2,1.6 4.2,2.7 6.5,3.7 4,1.7 8.1,3.3 11.9,5.4 12.4,7 15.7,22.3 7.1,32.8 z"
   id="path5706"
   style="fill:#194894;fill-opacity:1" />
		<circle
   cx="197.5"
   cy="190.35001"
   r="19.700001"
   id="circle5708"
   style="fill:#194894;fill-opacity:1" />
		<circle
   cx="404.79999"
   cy="190.35001"
   r="19.700001"
   id="circle5710"
   style="fill:#194894;fill-opacity:1" />
		<path
   d="M 454.1,70.55 H 143.8 c -17.9,0 -32.5,14.6 -32.5,32.5 v 167.3 c 0,17.9 14.6,32.5 32.5,32.5 H 454 c 17.9,0 32.5,-14.6 32.5,-32.5 v -167.3 c 0.1,-17.9 -14.5,-32.5 -32.4,-32.5 z m 4.7,164.7 c -2.6,-0.7 -5.3,-1 -8.1,-1 -18.2,0 -32.9,14.7 -32.9,32.9 0,2.8 0.4,5.5 1,8 H 177.2 c 0.4,-2 0.6,-4 0.6,-6.1 0,-18.2 -14.7,-32.9 -32.9,-32.9 -2,0 -3.9,0.2 -5.8,0.5 v -99.9 c 1.9,0.3 3.8,0.5 5.8,0.5 18.2,0 32.9,-14.7 32.9,-32.9 0,-2.1 -0.2,-4.1 -0.6,-6.1 H 418 c -0.2,1.3 -0.3,2.7 -0.3,4.1 0,18.2 14.7,32.9 32.9,32.9 2.8,0 5.5,-0.4 8.1,-1 v 101 z"
   id="path5712"
   style="fill:#194894;fill-opacity:1" />
		<path
   d="M 393.5,331.55 H 98.4 c -8.2,0 -14.9,-6.6 -14.9,-14.9 v -151.7 -10.3 -27.3 c -15.7,2.2 -27.7,15.7 -27.7,32 v 167.7 c 0,17.9 14.5,32.3 32.3,32.3 h 310.6 c 16.3,0 29.7,-12.1 32,-27.8 h -27.4 z"
   id="path5714"
   style="fill:#194894;fill-opacity:1" />
		<path
   d="M 337.7,388.15 H 42.6 c -8.2,0 -14.9,-6.6 -14.9,-14.9 v -151.7 -10.3 -27.3 C 12,186.15 0,199.65 0,215.95 v 167.7 c 0,17.9 14.5,32.3 32.3,32.3 h 310.6 c 16.3,0 29.7,-12.1 32,-27.8 h -27.4 z"
   id="path5716"
   style="fill:#194894;fill-opacity:1" />
	</g>
</g>
<g
   id="g5722"
   style="fill:#194894;fill-opacity:1"
   transform="translate(0,-70.55)">
</g>
<g
   id="g5724"
   style="fill:#194894;fill-opacity:1"
   transform="translate(0,-70.55)">
</g>
<g
   id="g5726"
   style="fill:#194894;fill-opacity:1"
   transform="translate(0,-70.55)">
</g>
<g
   id="g5728"
   style="fill:#194894;fill-opacity:1"
   transform="translate(0,-70.55)">
</g>
<g
   id="g5730"
   style="fill:#194894;fill-opacity:1"
   transform="translate(0,-70.55)">
</g>
<g
   id="g5732"
   style="fill:#194894;fill-opacity:1"
   transform="translate(0,-70.55)">
</g>
<g
   id="g5734"
   style="fill:#194894;fill-opacity:1"
   transform="translate(0,-70.55)">
</g>
<g
   id="g5736"
   style="fill:#194894;fill-opacity:1"
   transform="translate(0,-70.55)">
</g>
<g
   id="g5738"
   style="fill:#194894;fill-opacity:1"
   transform="translate(0,-70.55)">
</g>
<g
   id="g5740"
   style="fill:#194894;fill-opacity:1"
   transform="translate(0,-70.55)">
</g>
<g
   id="g5742"
   style="fill:#194894;fill-opacity:1"
   transform="translate(0,-70.55)">
</g>
<g
   id="g5744"
   style="fill:#194894;fill-opacity:1"
   transform="translate(0,-70.55)">
</g>
<g
   id="g5746"
   style="fill:#194894;fill-opacity:1"
   transform="translate(0,-70.55)">
</g>
<g
   id="g5748"
   style="fill:#194894;fill-opacity:1"
   transform="translate(0,-70.55)">
</g>
<g
   id="g5750"
   style="fill:#194894;fill-opacity:1"
   transform="translate(0,-70.55)">
</g>
</svg>
