<svg
   viewBox="0 0 430 350"
   xmlns="http://www.w3.org/2000/svg">
<g
   id="g4028"
   style="fill:#194894;fill-opacity:1"
   transform="translate(0,-40)">
	<path
   d="m 385,60 c -24.814,0 -45,20.187 -45,45 v 76.231 c -8.408,-8.033 -19.397,-12.443 -31.066,-12.443 -12.021,0 -23.32,4.681 -31.798,13.158 L 215,243.83 152.886,181.968 c -8.499,-8.499 -19.799,-13.18 -31.819,-13.18 -11.669,0 -22.659,4.411 -31.066,12.443 V 105 c 0,-24.813 -20.187,-45 -45,-45 C 20.188,60 0,80.187 0,105 v 130 c 0,3.398 1.131,6.532 3.036,9.047 0.414,0.548 0.868,1.07 1.359,1.561 L 110,351.213 V 375 c 0,8.284 6.716,15 15,15 h 90 90 c 8.284,0 15,-6.716 15,-15 V 351.213 L 425.604,245.608 c 0.001,0 0.001,-0.001 0.001,-0.001 C 428.32,242.893 430,239.143 430,235 V 105 C 430,80.187 409.814,60 385,60 Z M 135.606,334.394 30,228.787 V 105 c 0,-8.271 6.729,-15 15,-15 8.271,0 15,6.729 15,15 v 105.148 c 0,3.978 1.58,7.793 4.394,10.606 l 50,50 c 5.856,5.857 15.354,5.858 21.213,0 5.857,-5.858 5.858,-15.355 0.001,-21.213 l -25.148,-25.15 c -2.833,-2.832 -4.393,-6.599 -4.393,-10.605 0,-4.006 1.56,-7.773 4.394,-10.606 2.833,-2.833 6.6,-4.393 10.606,-4.393 4.006,0 7.773,1.56 10.628,4.414 L 200,271.231 V 360 h -60 v -15 c 0,-3.978 -1.58,-7.793 -4.394,-10.606 z M 400,228.787 294.394,334.394 C 291.58,337.207 290,341.022 290,345 v 15 h -60 v -88.769 l 68.327,-68.05 c 2.833,-2.833 6.6,-4.393 10.607,-4.393 4.007,0 7.773,1.56 10.607,4.393 2.833,2.833 4.393,6.599 4.393,10.605 0,4.006 -1.56,7.773 -4.395,10.607 l -25.146,25.148 h -10e-4 c -5.857,5.858 -5.857,15.355 10e-4,21.213 5.857,5.857 15.355,5.858 21.213,0 l 50,-50 C 368.419,217.941 370,214.126 370,210.148 V 105 c 0,-8.271 6.728,-15 15,-15 8.272,0 15,6.729 15,15 z"
   id="path4024"
   style="fill:#194894;fill-opacity:1" />
	<path
   d="m 175,159.999 h 80 c 8.284,0 15,-6.716 15,-15 v -60 c 0,-4.721 -2.223,-9.167 -6,-12 L 224,43 c -5.334,-4 -12.666,-4 -18,0 l -40,29.999 c -3.777,2.833 -6,7.279 -6,12 v 60 c 0,8.285 6.716,15 15,15 z m 15,-67.5 25,-18.749 25,18.749 v 37.5 h -50 z"
   id="path4026"
   style="fill:#194894;fill-opacity:1" />
</g>
<g
   id="g4030"
   style="fill:#194894;fill-opacity:1"
   transform="translate(0,-40)">
</g>
<g
   id="g4032"
   style="fill:#194894;fill-opacity:1"
   transform="translate(0,-40)">
</g>
<g
   id="g4034"
   style="fill:#194894;fill-opacity:1"
   transform="translate(0,-40)">
</g>
<g
   id="g4036"
   style="fill:#194894;fill-opacity:1"
   transform="translate(0,-40)">
</g>
<g
   id="g4038"
   style="fill:#194894;fill-opacity:1"
   transform="translate(0,-40)">
</g>
<g
   id="g4040"
   style="fill:#194894;fill-opacity:1"
   transform="translate(0,-40)">
</g>
<g
   id="g4042"
   style="fill:#194894;fill-opacity:1"
   transform="translate(0,-40)">
</g>
<g
   id="g4044"
   style="fill:#194894;fill-opacity:1"
   transform="translate(0,-40)">
</g>
<g
   id="g4046"
   style="fill:#194894;fill-opacity:1"
   transform="translate(0,-40)">
</g>
<g
   id="g4048"
   style="fill:#194894;fill-opacity:1"
   transform="translate(0,-40)">
</g>
<g
   id="g4050"
   style="fill:#194894;fill-opacity:1"
   transform="translate(0,-40)">
</g>
<g
   id="g4052"
   style="fill:#194894;fill-opacity:1"
   transform="translate(0,-40)">
</g>
<g
   id="g4054"
   style="fill:#194894;fill-opacity:1"
   transform="translate(0,-40)">
</g>
<g
   id="g4056"
   style="fill:#194894;fill-opacity:1"
   transform="translate(0,-40)">
</g>
<g
   id="g4058"
   style="fill:#194894;fill-opacity:1"
   transform="translate(0,-40)">
</g>
</svg>
