<svg
   viewBox="0 0 490 436.57199"
   xmlns="http://www.w3.org/2000/svg">
<g
   id="g2354"
   transform="translate(0,-26.714)"
   style="fill:#194894;fill-opacity:1">
	<ellipse
   cx="141.728"
   cy="381.36499"
   rx="72.943001"
   ry="14.805"
   id="ellipse2346"
   style="fill:#194894;fill-opacity:1" />
	<g
   id="g2352"
   style="fill:#194894;fill-opacity:1">
		<path
   d="m 39.521,173.428 c 0,54.551 80.57,164.053 89.775,176.309 l 12.51,16.822 12.589,-16.822 c 5.178,-6.998 33.343,-45.272 56.752,-87.025 L 408.563,463.286 430.387,441.806 275.422,284.364 490,65.904 468.161,44.454 253.945,262.545 225.985,234.138 c 10.633,-22.471 18.108,-44.139 18.108,-60.709 0,-65.445 -40.128,-107.74 -102.286,-107.74 -24.857,0 -46.108,6.861 -62.761,19.163 L 21.824,26.714 0,48.187 57.915,107.028 c -11.807,17.587 -18.394,40.076 -18.394,66.4 z m 173.958,0 c 0,24.291 -28.95,80.992 -71.688,141.501 -36.616,-51.62 -71.657,-114.225 -71.657,-141.501 0,-48.294 26.793,-77.127 71.672,-77.127 44.88,0 71.673,28.833 71.673,77.127 z"
   id="path2348"
   style="fill:#194894;fill-opacity:1" />
		<ellipse
   cx="141.728"
   cy="174.149"
   rx="33.125"
   ry="33.723999"
   id="ellipse2350"
   style="fill:#194894;fill-opacity:1" />
	</g>
</g>
<g
   id="g2356"
   transform="translate(0,-26.714)">
</g>
<g
   id="g2358"
   transform="translate(0,-26.714)">
</g>
<g
   id="g2360"
   transform="translate(0,-26.714)">
</g>
<g
   id="g2362"
   transform="translate(0,-26.714)">
</g>
<g
   id="g2364"
   transform="translate(0,-26.714)">
</g>
<g
   id="g2366"
   transform="translate(0,-26.714)">
</g>
<g
   id="g2368"
   transform="translate(0,-26.714)">
</g>
<g
   id="g2370"
   transform="translate(0,-26.714)">
</g>
<g
   id="g2372"
   transform="translate(0,-26.714)">
</g>
<g
   id="g2374"
   transform="translate(0,-26.714)">
</g>
<g
   id="g2376"
   transform="translate(0,-26.714)">
</g>
<g
   id="g2378"
   transform="translate(0,-26.714)">
</g>
<g
   id="g2380"
   transform="translate(0,-26.714)">
</g>
<g
   id="g2382"
   transform="translate(0,-26.714)">
</g>
<g
   id="g2384"
   transform="translate(0,-26.714)">
</g>
</svg>
