<svg
   viewBox="0 0 512 512"
   xmlns="http://www.w3.org/2000/svg">
<g
   id="g1373"
   style="fill:#194894;fill-opacity:1">
	<g
   id="g1371"
   style="fill:#194894;fill-opacity:1">
		<path
   d="m 360.677,196.217 c -2.37,-3.094 -6.299,-4.568 -10.116,-3.796 L 254.285,211.857 268.79,69.368 c 0.509,-5.001 -2.701,-9.627 -7.565,-10.9 -4.861,-1.272 -9.928,1.187 -11.934,5.798 l -99.223,228.031 c -1.516,3.485 -0.969,7.524 1.421,10.481 2.389,2.956 6.225,4.339 9.95,3.586 l 94.916,-19.161 -34.102,154.262 c -1.113,5.028 1.7,10.097 6.555,11.816 1.122,0.397 2.27,0.586 3.401,0.586 3.772,0 7.36,-2.103 9.128,-5.647 L 361.706,206.973 c 1.741,-3.488 1.341,-7.661 -1.029,-10.756 z m -100.643,168.841 19.619,-88.752 c 0.744,-3.369 -0.264,-6.885 -2.681,-9.348 -1.937,-1.974 -4.568,-3.054 -7.278,-3.054 -0.671,0 -1.346,0.066 -2.018,0.202 l -91.097,18.39 65.287,-150.039 -9.273,91.102 c -0.328,3.224 0.894,6.412 3.295,8.589 2.401,2.177 5.692,3.084 8.868,2.442 l 89.376,-18.042 z"
   id="path1369"
   style="fill:#194894;fill-opacity:1" />
	</g>
</g>
<g
   id="g1379"
   style="fill:#194894;fill-opacity:1">
	<g
   id="g1377"
   style="fill:#194894;fill-opacity:1">
		<path
   d="m 501.801,245.801 c -5.632,0 -10.199,4.566 -10.199,10.199 0,2.917 -0.055,5.88 -0.161,8.806 -0.206,5.63 4.19,10.359 9.819,10.565 0.127,0.005 0.254,0.007 0.38,0.007 5.461,0 9.984,-4.324 10.185,-9.826 0.116,-3.174 0.175,-6.388 0.175,-9.553 0,-5.632 -4.567,-10.198 -10.199,-10.198 z"
   id="path1375"
   style="fill:#194894;fill-opacity:1" />
	</g>
</g>
<g
   id="g1385"
   style="fill:#194894;fill-opacity:1">
	<g
   id="g1383"
   style="fill:#194894;fill-opacity:1">
		<path
   d="m 496.208,309.379 c -5.44,-1.447 -11.028,1.797 -12.474,7.24 C 456.382,419.646 362.735,491.602 256,491.602 c -57.598,0 -112.031,-20.54 -154.962,-58.135 h 32.571 c 5.632,0 10.199,-4.566 10.199,-10.199 0,-5.633 -4.567,-10.199 -10.199,-10.199 H 78.534 c -5.632,0 -10.199,4.566 -10.199,10.199 v 55.076 c 0,5.633 4.567,10.199 10.199,10.199 5.632,0 10.199,-4.566 10.199,-10.199 V 449.816 C 135.206,490.046 193.915,512 256,512 c 115.973,0 217.728,-78.191 247.448,-190.147 1.445,-5.444 -1.796,-11.029 -7.24,-12.474 z"
   id="path1381"
   style="fill:#194894;fill-opacity:1" />
	</g>
</g>
<g
   id="g1391"
   style="fill:#194894;fill-opacity:1">
	<g
   id="g1389"
   style="fill:#194894;fill-opacity:1">
		<path
   d="m 438.566,27.538 c -5.632,0 -10.199,4.566 -10.199,10.199 V 66.725 C 381.126,23.611 320.379,0 256,0 187.619,0 123.333,26.628 74.982,74.98 26.628,123.333 0,187.62 0,256 c 0,5.633 4.567,10.199 10.199,10.199 5.632,0 10.199,-4.566 10.199,-10.199 0,-129.911 105.69,-235.602 235.602,-235.602 59.647,0 115.901,22.028 159.5,62.215 h -32.01 c -5.632,0 -10.199,4.566 -10.199,10.199 0,5.633 4.567,10.199 10.199,10.199 h 55.076 c 5.632,0 10.199,-4.566 10.199,-10.199 V 37.737 c 0,-5.633 -4.567,-10.199 -10.199,-10.199 z"
   id="path1387"
   style="fill:#194894;fill-opacity:1" />
	</g>
</g>
<g
   id="g1393">
</g>
<g
   id="g1395">
</g>
<g
   id="g1397">
</g>
<g
   id="g1399">
</g>
<g
   id="g1401">
</g>
<g
   id="g1403">
</g>
<g
   id="g1405">
</g>
<g
   id="g1407">
</g>
<g
   id="g1409">
</g>
<g
   id="g1411">
</g>
<g
   id="g1413">
</g>
<g
   id="g1415">
</g>
<g
   id="g1417">
</g>
<g
   id="g1419">
</g>
<g
   id="g1421">
</g>
</svg>
