<svg
   viewBox="0 0 297.00201 279.74576"
   xmlns="http://www.w3.org/2000/svg">
<g
   id="g7397"
   style="fill:#194894;fill-opacity:1"
   transform="translate(0,-8.62725)">
	<path
   d="M 291.219,78.753 153.176,9.732 c -2.943,-1.473 -6.409,-1.473 -9.353,0 L 5.781,78.753 C 2.238,80.525 0,84.145 0,88.107 v 189.808 c 0,5.775 4.682,10.458 10.458,10.458 h 34.511 c 5.775,0 10.458,-4.682 10.458,-10.458 V 115.82 h 186.148 v 162.095 c 0,5.775 4.682,10.458 10.458,10.458 h 34.511 c 5.775,0 10.458,-4.682 10.458,-10.458 V 88.107 C 297,84.145 294.762,80.525 291.219,78.753 Z M 276.085,267.457 H 262.49 V 105.362 c 0,-5.775 -4.682,-10.458 -10.458,-10.458 H 44.968 c -5.775,0 -10.458,4.682 -10.458,10.458 V 267.457 H 20.915 V 94.57 L 148.5,30.778 276.085,94.57 Z"
   id="path7393"
   style="fill:#194894;fill-opacity:1" />
	<path
   d="M 217.521,132.552 H 148.5 c -4.043,0 -7.32,3.277 -7.32,7.32 v 61.701 H 79.479 c -4.043,0 -7.32,3.277 -7.32,7.32 v 69.021 c 0,4.043 3.277,7.32 7.32,7.32 h 138.042 c 4.043,0 7.32,-3.277 7.32,-7.32 V 139.873 c 0.001,-4.044 -3.277,-7.321 -7.32,-7.321 z m -61.701,94.016 16.837,16.837 -16.837,16.837 z m -14.64,33.673 -16.837,-16.837 16.837,-16.837 z m 24.994,-44.027 h 33.673 l -16.837,16.837 z m 0,-14.641 16.837,-16.837 16.837,16.837 z m 44.027,-10.353 -16.836,-16.837 16.836,-16.837 z m -27.19,-27.19 -16.837,-16.837 h 33.673 z m -10.354,10.353 -16.837,16.837 v -33.673 z m -58.668,58.668 -16.837,-16.837 h 33.673 z m -10.353,10.353 -16.837,16.837 v -33.673 z m 10.353,10.354 16.837,16.837 H 97.153 Z m 69.021,0 16.837,16.837 h -33.673 z m 10.354,-10.354 16.837,-16.837 v 33.673 z"
   id="path7395"
   style="fill:#194894;fill-opacity:1" />
</g>
<g
   id="g7399"
   style="fill:#194894;fill-opacity:1"
   transform="translate(0,-8.62725)">
</g>
<g
   id="g7401"
   style="fill:#194894;fill-opacity:1"
   transform="translate(0,-8.62725)">
</g>
<g
   id="g7403"
   style="fill:#194894;fill-opacity:1"
   transform="translate(0,-8.62725)">
</g>
<g
   id="g7405"
   style="fill:#194894;fill-opacity:1"
   transform="translate(0,-8.62725)">
</g>
<g
   id="g7407"
   style="fill:#194894;fill-opacity:1"
   transform="translate(0,-8.62725)">
</g>
<g
   id="g7409"
   style="fill:#194894;fill-opacity:1"
   transform="translate(0,-8.62725)">
</g>
<g
   id="g7411"
   style="fill:#194894;fill-opacity:1"
   transform="translate(0,-8.62725)">
</g>
<g
   id="g7413"
   style="fill:#194894;fill-opacity:1"
   transform="translate(0,-8.62725)">
</g>
<g
   id="g7415"
   style="fill:#194894;fill-opacity:1"
   transform="translate(0,-8.62725)">
</g>
<g
   id="g7417"
   style="fill:#194894;fill-opacity:1"
   transform="translate(0,-8.62725)">
</g>
<g
   id="g7419"
   style="fill:#194894;fill-opacity:1"
   transform="translate(0,-8.62725)">
</g>
<g
   id="g7421"
   style="fill:#194894;fill-opacity:1"
   transform="translate(0,-8.62725)">
</g>
<g
   id="g7423"
   style="fill:#194894;fill-opacity:1"
   transform="translate(0,-8.62725)">
</g>
<g
   id="g7425"
   style="fill:#194894;fill-opacity:1"
   transform="translate(0,-8.62725)">
</g>
<g
   id="g7427"
   style="fill:#194894;fill-opacity:1"
   transform="translate(0,-8.62725)">
</g>
</svg>
