<svg
   viewBox="0 0 489 489"
   xmlns="http://www.w3.org/2000/svg">
<g
   id="g1098"
   style="fill:#5fb2d4;fill-opacity:1">
	<g
   id="g1096"
   style="fill:#5fb2d4;fill-opacity:1">
		<path
   d="M 244.5,0 C 109.3,0 0,109.3 0,244.5 0,379.7 109.3,489 244.5,489 379.7,489 489,379.8 489,244.5 489,109.2 379.8,0 244.5,0 Z m 20.8,447.4 V 437 c 0,-11.4 -9.4,-20.8 -20.8,-20.8 -11.4,0 -20.8,9.4 -20.8,20.8 v 10.4 C 127.9,437.6 51.4,361.1 41.7,265.4 H 51 c 11.4,0 20.8,-9.4 20.8,-20.8 0,-11.4 -9.4,-20.8 -20.8,-20.8 H 41.7 C 51.5,128 128,51.5 223.7,41.8 V 51 c 0,11.4 9.4,20.8 20.8,20.8 11.4,0 20.8,-9.4 20.8,-20.8 v -9.3 c 95.8,9.8 172.3,86.3 182,182 H 437 c -11.4,0 -20.8,9.4 -20.8,20.8 0,11.4 9.4,20.8 20.8,20.8 h 10.4 c -9.8,95.8 -86.3,172.3 -182.1,182.1 z"
   id="path1092"
   style="fill:#5fb2d4;fill-opacity:1" />
		<path
   d="m 244.5,124.9 c -11.4,0 -20.8,9.4 -20.8,20.8 v 91.5 L 129,353.8 c -7.3,9.4 -5.2,21.8 3.1,29.1 11.6,8.5 23.9,2.1 28.1,-3.1 L 261.2,257 c 2.1,-3.1 4.2,-7.3 4.2,-12.5 v -98.8 c -0.1,-11.5 -9.4,-20.8 -20.9,-20.8 z"
   id="path1094"
   style="fill:#5fb2d4;fill-opacity:1" />
	</g>
</g>
<g
   id="g1100"
   style="fill:#5fb2d4;fill-opacity:1">
</g>
<g
   id="g1102"
   style="fill:#5fb2d4;fill-opacity:1">
</g>
<g
   id="g1104"
   style="fill:#5fb2d4;fill-opacity:1">
</g>
<g
   id="g1106"
   style="fill:#5fb2d4;fill-opacity:1">
</g>
<g
   id="g1108"
   style="fill:#5fb2d4;fill-opacity:1">
</g>
<g
   id="g1110"
   style="fill:#5fb2d4;fill-opacity:1">
</g>
<g
   id="g1112"
   style="fill:#5fb2d4;fill-opacity:1">
</g>
<g
   id="g1114"
   style="fill:#5fb2d4;fill-opacity:1">
</g>
<g
   id="g1116"
   style="fill:#5fb2d4;fill-opacity:1">
</g>
<g
   id="g1118"
   style="fill:#5fb2d4;fill-opacity:1">
</g>
<g
   id="g1120"
   style="fill:#5fb2d4;fill-opacity:1">
</g>
<g
   id="g1122"
   style="fill:#5fb2d4;fill-opacity:1">
</g>
<g
   id="g1124"
   style="fill:#5fb2d4;fill-opacity:1">
</g>
<g
   id="g1126"
   style="fill:#5fb2d4;fill-opacity:1">
</g>
<g
   id="g1128"
   style="fill:#5fb2d4;fill-opacity:1">
</g>
</svg>
